<svg width="56" height="56" viewBox="0 0 56 56" fill="none" xmlns="http://www.w3.org/2000/svg" role="img" aria-label="0kbot mark">
  <defs>
    <linearGradient id="markGradient" x1="6" y1="6" x2="50" y2="50" gradientUnits="userSpaceOnUse">
      <stop stop-color="#1A74C4"/>
      <stop offset="1" stop-color="#1B5FA6"/>
    </linearGradient>
    <linearGradient id="goldGradient" x1="16" y1="14" x2="42" y2="42" gradientUnits="userSpaceOnUse">
      <stop stop-color="#F0D77A"/>
      <stop offset="1" stop-color="#D4AF37"/>
    </linearGradient>
  </defs>
  <rect x="6" y="6" width="44" height="44" rx="14" fill="url(#markGradient)"/>
  <path d="M28 15C20.82 15 15 20.82 15 28C15 35.18 20.82 41 28 41C35.18 41 41 35.18 41 28C41 20.82 35.18 15 28 15ZM28 21.2C31.76 21.2 34.8 24.24 34.8 28C34.8 31.76 31.76 34.8 28 34.8C24.24 34.8 21.2 31.76 21.2 28C21.2 24.24 24.24 21.2 28 21.2Z" fill="white"/>
  <path d="M28 15C31.48 15 34.64 16.37 36.97 18.59L32.56 23C31.36 21.88 29.76 21.2 28 21.2V15Z" fill="url(#goldGradient)"/>
  <circle cx="40" cy="16" r="3.2" fill="#D4AF37"/>
  <circle cx="16" cy="40" r="2.4" fill="#F7F5F0" fill-opacity="0.92"/>
  <path d="M37.7 18.3L40 16" stroke="#F7F5F0" stroke-width="1.6" stroke-linecap="round"/>
  <path d="M18.1 37.9L16 40" stroke="#F7F5F0" stroke-width="1.4" stroke-linecap="round"/>
</svg>
